<?xml version="1.0" standalone="no"?>
<!DOCTYPE svg PUBLIC "-//W3C//DTD SVG 20010904//EN"
 "http://www.w3.org/TR/2001/REC-SVG-20010904/DTD/svg10.dtd">
<svg version="1.0" xmlns="http://www.w3.org/2000/svg"
 width="125.000000pt" height="125.000000pt" viewBox="0 0 125.000000 125.000000"
 preserveAspectRatio="xMidYMid meet">

<g fill="#000000" transform="translate(0.000000,125.000000) scale(0.100000,-0.100000)"
stroke="none">
<path d="M262 1160 c-40 -25 -66 -81 -58 -128 4 -28 0 -41 -24 -71 -46 -58
-81 -147 -87 -225 -4 -45 -14 -85 -28 -111 -71 -129 -54 -309 37 -391 40 -37
135 -79 243 -109 92 -25 388 -32 491 -11 138 28 278 112 340 205 51 78 50 238
-3 328 -13 23 -22 47 -19 52 7 11 -19 131 -40 180 -8 20 -24 46 -36 58 -18 20
-20 26 -10 48 29 63 3 139 -58 170 -50 26 -98 17 -146 -27 -20 -18 -24 -18
-80 -3 -73 19 -198 19 -288 0 -55 -12 -72 -12 -78 -2 -4 6 -8 14 -8 17 0 13
-60 40 -87 40 -15 0 -43 -9 -61 -20z m540 -70 c124 -46 276 -172 298 -246 6
-21 14 -73 17 -114 4 -51 11 -81 23 -95 9 -11 22 -35 29 -54 14 -42 15 -170 1
-206 -34 -89 -182 -192 -340 -236 -61 -17 -364 -13 -446 6 -82 19 -212 71
-252 101 -68 52 -84 105 -72 233 6 64 16 103 35 141 19 38 26 63 22 89 -9 77
46 204 118 270 129 119 403 172 567 111z"/>
<path d="M420 950 c-8 -5 -23 -11 -32 -14 -24 -7 -23 -23 2 -31 29 -9 60 4 60
25 0 23 -10 30 -30 20z"/>
<path d="M760 940 c0 -21 34 -45 50 -35 18 11 10 32 -15 43 -34 16 -35 15 -35
-8z"/>
<path d="M355 846 c-42 -45 -85 -134 -85 -178 0 -43 25 -68 67 -68 23 0 40 10
66 40 86 95 102 192 36 225 -40 21 -48 19 -84 -19z m39 -101 c-4 -8 -8 -15
-10 -15 -2 0 -4 7 -4 15 0 8 4 15 10 15 5 0 7 -7 4 -15z"/>
<path d="M745 855 c-15 -14 -25 -36 -25 -52 0 -67 106 -213 154 -213 34 0 76
37 76 67 0 36 -55 146 -94 188 -40 42 -76 46 -111 10z m72 -107 c-3 -8 -6 -5
-6 6 -1 11 2 17 5 13 3 -3 4 -12 1 -19z"/>
<path d="M620 670 c-8 -5 -36 -10 -61 -10 -74 0 -107 -55 -51 -84 46 -25 82
-80 83 -128 l2 -43 6 45 c4 30 21 66 49 106 48 68 51 86 20 108 -26 19 -28 19
-48 6z"/>
</g>
</svg>
